Coordinates
version=1
nRows=65
nColumns=12
inDegrees=yes

Units are S.I. units (second, meters, Newtons, ...)
Angles are in degrees

endheader
time	SC_y	SC_z	SC_x	AC_y	AC_z	AC_x	GH_y	GH_z	GH_yy	EL_x	PS_y
       0.0               -34.8          30.38          27.99          63.18         -16.64          16.19         -153.2          32.59          2.626          63.36          50.09
  0.004656               -34.8          30.38          27.98          63.17         -16.64          16.19         -153.2          32.59          2.624          63.35           50.1
  0.009313               -34.8          30.38          27.98          63.17         -16.63          16.18         -153.1           32.6          2.621          63.34           50.1
   0.01397               -34.8          30.38          27.98          63.16         -16.63          16.18         -153.1           32.6          2.619          63.33          50.11
   0.01863              -34.79          30.38          27.98          63.16         -16.63          16.18         -153.1           32.6          2.616          63.32          50.12
   0.02328              -34.79          30.38          27.97          63.15         -16.62          16.18         -153.1          32.61          2.614          63.31          50.13
   0.02794              -34.79          30.38          27.97          63.15         -16.62          16.17         -153.1          32.61          2.611           63.3          50.14
   0.03259              -34.79          30.38          27.97          63.14         -16.61          16.17         -153.1          32.62          2.608          63.29          50.15
   0.03725              -34.79          30.37          27.97          63.13         -16.61          16.17         -153.0          32.62          2.604          63.27          50.16
   0.04191              -34.78          30.37          27.96          63.13          -16.6          16.16         -153.0          32.63          2.601          63.26          50.17
   0.04656              -34.78          30.37          27.96          63.12          -16.6          16.16         -153.0          32.63          2.597          63.25          50.19
   0.05122              -34.78          30.37          27.96          63.11         -16.59          16.16         -153.0          32.64          2.593          63.23           50.2
   0.05588              -34.77          30.37          27.95           63.1         -16.59          16.15         -152.9          32.64          2.588          63.21          50.21
   0.06053              -34.77          30.37          27.95          63.09         -16.58          16.15         -152.9          32.65          2.583          63.19          50.23
   0.06519              -34.77          30.36          27.94          63.08         -16.57          16.14         -152.9          32.66          2.578          63.17          50.25
   0.06985              -34.76          30.36          27.94          63.07         -16.56          16.14         -152.8          32.67          2.572          63.15          50.27
    0.0745              -34.76          30.36          27.93          63.06         -16.56          16.13         -152.8          32.68          2.566          63.13          50.29
   0.07916              -34.75          30.36          27.93          63.05         -16.55          16.12         -152.7          32.68           2.56           63.1          50.31
   0.08381              -34.74          30.35          27.92          63.03         -16.54          16.12         -152.7          32.69          2.552          63.08          50.33
   0.08847              -34.74          30.35          27.91          63.02         -16.52          16.11         -152.6          32.71          2.544          63.05          50.36
   0.09313              -34.73          30.35          27.91           63.0         -16.51           16.1         -152.6          32.72          2.535          63.01          50.39
   0.09778              -34.72          30.34           27.9          62.98          -16.5          16.09         -152.5          32.73          2.526          62.97          50.42
    0.1024              -34.72          30.34          27.89          62.96         -16.48          16.08         -152.5          32.75          2.515          62.93          50.45
    0.1071              -34.71          30.34          27.88          62.94         -16.47          16.07         -152.4          32.76          2.503          62.89          50.49
    0.1118               -34.7          30.33          27.87          62.91         -16.45          16.05         -152.3          32.78           2.49          62.84          50.54
    0.1164              -34.68          30.33          27.85          62.89         -16.43          16.04         -152.2           32.8          2.475          62.78          50.59
    0.1211              -34.67          30.32          27.84          62.85         -16.41          16.02         -152.1          32.83          2.458          62.72          50.64
    0.1257              -34.66          30.31          27.82          62.82         -16.38           16.0         -152.0          32.85           2.44          62.65           50.7
    0.1304              -34.64          30.31           27.8          62.78         -16.35          15.98         -151.9          32.88          2.419          62.57          50.77
     0.135              -34.62           30.3          27.78          62.73         -16.32          15.96         -151.7          32.91          2.395          62.48          50.85
    0.1397               -34.6          30.29          27.76          62.68         -16.28          15.93         -151.5          32.95          2.368          62.37          50.94
    0.1443              -34.58          30.27          27.73          62.62         -16.24           15.9         -151.3           33.0          2.337          62.25          51.04
     0.149              -34.55          30.26           27.7          62.55         -16.19          15.87         -151.1          33.05            2.3          62.12          51.16
    0.1537              -34.52          30.25          27.66          62.47         -16.13          15.82         -150.8           33.1          2.259          61.96           51.3
    0.1583              -34.48          30.23          27.62          62.38         -16.06          15.78         -150.5          33.17          2.209          61.77          51.46
     0.163              -34.43          30.21          27.57          62.27         -15.98          15.72         -150.2          33.25          2.152          61.55          51.65
    0.1676              -34.38          30.18          27.51          62.13         -15.89          15.65         -149.7          33.35          2.083          61.29          51.87
    0.1723              -34.32          30.15          27.44          61.98         -15.77          15.57         -149.2          33.47          2.001          60.97          52.14
    0.1769              -34.24          30.11          27.35          61.78         -15.63          15.47         -148.6           33.6          1.901          60.59          52.47
    0.1816              -34.14          30.07          27.25          61.55         -15.46          15.35         -147.8          33.77          1.779          60.13          52.87
    0.1863              -34.03          30.01          27.12          61.26         -15.26           15.2         -146.8          33.98          1.629          59.56          53.37
    0.1909              -33.88          29.94          26.95           60.9          -15.0          15.01         -145.7          34.25          1.442          58.84          53.98
    0.1956               -33.7          29.85          26.75          60.45         -14.67          14.78         -144.2          34.58          1.206          57.94          54.76
    0.2002              -33.46          29.74          26.49          59.87         -14.25          14.48         -142.3          34.99         0.9058           56.8          55.74
    0.2049              -33.16           29.6          26.15          59.14         -13.72           14.1         -139.8          35.53         0.5218          55.34          57.01
    0.2095              -32.78          29.42          25.72          58.19         -13.04          13.61         -136.7          36.22        0.02907          53.46          58.62
    0.2142              -32.29          29.18          25.17          56.98         -12.17          12.99         -132.7           37.1        -0.6003          51.06          60.69
    0.2188              -31.67          28.89          24.48          55.46         -11.07           12.2         -127.7           38.2         -1.392          48.04          63.29
    0.2235              -30.92          28.53          23.64          53.61         -9.732          11.25         -121.6          39.55         -2.356          44.37          66.46
    0.2282              -30.05          28.11          22.67          51.47         -8.182          10.14         -114.5          41.11         -3.474          40.11          70.14
    0.2328              -29.11          27.66          21.61          49.14         -6.504          8.939         -106.8           42.8         -4.684          35.49          74.12
    0.2375              -28.17          27.21          20.56          46.82         -4.826          7.738         -99.14           44.5         -5.895          30.88          78.09
    0.2421               -27.3           26.8          19.58          44.67         -3.277           6.63         -92.05          46.06         -7.013          26.62          81.77
    0.2468              -26.55          26.44          18.74          42.82          -1.94          5.673         -85.93           47.4         -7.977          22.94          84.94
    0.2514              -25.93          26.15          18.05           41.3        -0.8429          4.888         -80.91          48.51         -8.768          19.93          87.54
    0.2561              -25.44          25.91           17.5          40.09        0.02958          4.264         -76.92          49.39         -9.398          17.53          89.61
    0.2608              -25.06          25.73          17.07          39.15         0.7126          3.775          -73.8          50.08         -9.891          15.65          91.23
    0.2654              -24.76          25.59          16.74          38.41          1.245          3.394         -71.36          50.61         -10.27          14.19          92.49
    0.2701              -24.52          25.47          16.48          37.83          1.661          3.097         -69.46          51.03         -10.57          13.04          93.48
    0.2747              -24.34          25.39          16.27          37.38          1.988          2.863         -67.96          51.36         -10.81          12.14          94.25
    0.2794              -24.19          25.32          16.11          37.02          2.248          2.677         -66.78          51.62          -11.0          11.43          94.87
     0.284              -24.08          25.26          15.98          36.73          2.456          2.528         -65.82          51.83         -11.15          10.86          95.36
    0.2887              -23.98          25.22          15.87           36.5          2.624          2.407         -65.05           52.0         -11.27          10.39          95.76
    0.2934              -23.91          25.18          15.79          36.31          2.763          2.308         -64.42          52.14         -11.37          10.01          96.09
     0.298              -23.84          25.15          15.71          36.15          2.877          2.227          -63.9          52.26         -11.45          9.699          96.36
